<?xml version="1.0" standalone="no"?>
<!DOCTYPE svg PUBLIC "-//W3C//DTD SVG 20010904//EN"
 "http://www.w3.org/TR/2001/REC-SVG-20010904/DTD/svg10.dtd">
<svg version="1.0" xmlns="http://www.w3.org/2000/svg"
 width="1000.000000pt" height="1000.000000pt" viewBox="0 0 1000.000000 1000.000000"
 preserveAspectRatio="xMidYMid meet">
<metadata>
Created by potrace 1.11, written by Peter Selinger 2001-2013
</metadata>
<g transform="translate(0.000000,1000.000000) scale(0.100000,-0.100000)"
fill="#000000" stroke="none">
<path d="M4410 7694 c-434 -24 -822 -83 -1118 -169 -452 -131 -1003 -437
-1273 -705 l-106 -106 -34 29 c-19 15 -61 41 -94 56 -140 67 -284 74 -438 23
-117 -39 -137 -39 -263 -7 l-98 25 -21 -20 c-12 -11 -39 -52 -61 -89 -34 -60
-44 -70 -74 -76 -60 -12 -85 -31 -159 -125 -68 -86 -113 -124 -220 -182 -30
-17 -31 -19 -31 -85 1 -78 15 -125 53 -174 26 -34 26 -36 12 -89 -8 -30 -15
-80 -15 -110 0 -38 -9 -78 -31 -130 -49 -121 -72 -223 -67 -304 4 -90 37 -148
154 -274 44 -48 90 -104 103 -124 56 -93 227 -204 352 -229 l60 -12 -5 -46
c-5 -42 -20 -208 -30 -337 -3 -39 -15 -70 -54 -135 -79 -131 -189 -365 -218
-464 -20 -70 -27 -120 -31 -226 -12 -285 42 -441 153 -443 25 -1 33 -5 29 -16
-2 -8 -23 -98 -46 -200 -22 -102 -104 -413 -180 -693 -267 -977 -294 -1113
-294 -1507 0 -160 4 -224 18 -290 24 -110 69 -265 108 -374 l32 -86 44 0 c39
0 44 2 38 18 -61 146 -130 408 -146 551 -24 218 9 583 81 900 42 181 78 322
79 308 1 -4 -12 -83 -28 -175 -75 -436 -92 -568 -93 -702 0 -201 38 -429 124
-747 l41 -153 88 0 c84 0 89 1 94 23 2 12 21 96 40 186 19 90 38 174 41 186 6
23 9 21 91 -41 47 -36 90 -63 96 -61 29 9 11 40 -73 125 -51 50 -89 96 -85
102 17 27 150 545 185 720 41 208 71 487 91 845 6 115 14 227 18 250 l7 40 18
-70 c10 -38 49 -198 88 -355 38 -157 81 -334 96 -395 21 -83 32 -111 45 -113
10 -2 17 3 17 11 0 31 -181 888 -210 992 -17 61 -57 216 -90 346 l-60 236 50
231 c27 127 50 239 50 249 0 11 14 41 32 69 17 27 48 83 69 124 34 67 39 71
39 43 0 -41 -9 -65 -22 -56 -7 4 -9 -4 -4 -23 21 -86 24 -129 19 -234 -7 -159
13 -699 32 -850 34 -265 120 -630 254 -1080 l71 -235 -35 -210 c-56 -343 -85
-594 -111 -957 l-6 -98 246 0 c135 0 246 2 246 4 0 3 -7 33 -15 68 -23 100
-62 348 -87 554 -19 163 -22 238 -23 539 0 224 5 393 13 470 17 158 61 448 76
507 l12 48 39 -27 c22 -15 43 -31 46 -36 4 -5 9 -43 13 -86 21 -235 100 -669
186 -1016 27 -110 63 -274 80 -365 17 -91 58 -276 91 -412 l61 -248 163 0 164
0 -26 68 c-15 37 -99 283 -188 547 -229 681 -310 968 -414 1463 -242 1148
-275 1915 -132 3062 15 124 22 152 47 195 53 90 133 269 168 377 70 212 82
371 38 471 l-20 46 41 27 c89 59 195 156 269 245 42 52 85 104 95 116 11 13
57 33 123 53 189 58 264 102 425 251 l81 75 109 28 c173 45 329 98 476 164
250 113 507 163 729 144 73 -6 131 -7 141 -1 42 22 216 59 281 59 107 0 242
-42 411 -127 64 -32 87 -35 87 -12 0 5 -14 18 -32 29 l-32 19 39 -5 c133 -19
408 -82 520 -118 129 -43 321 -133 465 -218 388 -231 695 -507 892 -803 74
-112 217 -397 286 -572 52 -132 152 -418 152 -434 0 -5 -29 11 -65 36 -69 47
-128 68 -288 105 -90 21 -100 21 -114 7 -15 -14 -12 -28 32 -154 91 -263 140
-345 299 -502 l75 -74 -34 -66 c-50 -101 -87 -190 -102 -251 -19 -79 -37 -443
-23 -470 17 -32 50 -24 143 33 99 60 146 100 184 159 l27 41 7 -29 c7 -30 21
-421 39 -1079 6 -214 15 -491 20 -615 19 -487 1 -1284 -41 -1770 -6 -69 -18
-214 -27 -323 l-17 -197 47 0 c43 0 48 2 48 23 0 12 5 74 10 138 17 211 49
740 61 1014 14 324 5 872 -25 1585 l-5 115 18 -95 c25 -129 51 -229 121 -465
79 -267 112 -406 159 -675 71 -402 85 -536 85 -805 1 -255 -8 -349 -61 -635
-35 -193 -35 -194 3 -198 22 -2 33 2 38 14 13 34 65 373 82 534 26 252 13 490
-47 863 -11 71 -19 130 -17 132 5 6 86 -383 98 -470 33 -243 34 -595 4 -910
-7 -82 -14 -154 -14 -158 0 -5 17 -7 38 -5 l37 3 9 70 c5 39 9 241 10 450 1
513 10 455 -239 1575 -197 886 -352 1684 -376 1931 -8 88 -7 101 11 145 31 71
40 342 16 467 -22 116 -92 345 -115 378 -11 14 -29 61 -41 105 -106 384 -298
862 -428 1064 -24 38 -43 86 -58 152 -38 161 -85 232 -223 341 -36 29 -67 55
-69 58 -16 36 -130 194 -166 232 -54 56 -106 80 -232 110 l-91 22 -56 66
c-106 125 -181 163 -392 197 -104 17 -114 21 -175 66 -36 27 -96 65 -135 85
-67 34 -75 36 -180 38 -60 1 -146 9 -190 18 -149 30 -499 84 -645 100 -145 16
-438 26 -560 19z m394 -73 c27 -5 23 -8 -42 -29 l-71 -23 -88 25 c-48 14 -97
27 -108 29 -11 3 48 5 130 5 83 0 163 -3 179 -7z m-630 -54 c-56 -29 -109 -59
-118 -66 -13 -11 -57 -14 -194 -13 -148 2 -185 -1 -228 -16 -69 -24 -152 -75
-233 -143 -65 -55 -69 -57 -141 -64 -121 -11 -254 -41 -311 -70 -74 -37 -148
-102 -225 -200 -65 -82 -67 -83 -127 -95 -93 -18 -222 -68 -269 -104 -48 -37
-124 -158 -160 -252 -12 -32 -23 -61 -24 -63 -7 -9 -59 40 -109 103 l-54 69
61 74 c81 98 140 150 279 250 263 188 550 338 836 437 266 92 687 172 1053
199 25 2 50 4 55 5 6 1 -36 -22 -91 -51z m1009 18 c37 -8 120 -35 184 -60 91
-37 124 -46 157 -42 22 2 96 10 164 18 96 10 134 11 179 1 69 -14 162 -57 241
-111 48 -33 80 -44 176 -66 205 -46 251 -69 365 -185 72 -73 80 -78 148 -94
159 -39 231 -93 343 -257 44 -64 81 -104 149 -158 102 -81 142 -132 165 -211
9 -29 16 -55 16 -56 0 -1 -66 64 -147 145 -82 81 -191 181 -243 221 -282 217
-647 418 -905 499 -125 39 -399 95 -570 116 -103 12 -147 23 -212 51 -45 19
-112 42 -148 51 -60 16 -70 16 -143 1 -44 -9 -121 -33 -171 -53 l-92 -37 -88
11 c-166 21 -275 15 -423 -24 -234 -61 -271 -72 -358 -110 -123 -53 -261 -99
-433 -146 l-151 -41 -105 -95 c-58 -52 -132 -111 -164 -132 -51 -34 -205 -93
-312 -120 -33 -9 -50 -23 -95 -83 -80 -105 -200 -228 -286 -294 l-75 -57 -16
24 c-9 13 -46 54 -83 90 l-68 66 28 65 c39 94 87 175 128 215 45 45 153 96
264 123 81 21 87 24 122 70 61 80 189 195 247 223 63 30 170 53 289 63 99 8
94 6 185 79 151 121 226 146 449 147 l141 0 85 49 c172 98 283 113 475 64
l100 -25 75 25 c171 56 284 68 413 40z m325 -41 c54 -7 58 -17 12 -27 -16 -4
-41 3 -70 19 -30 17 -37 23 -20 20 14 -3 49 -8 78 -12z m-4405 -780 c92 -19
157 -17 247 6 93 24 241 26 325 5 95 -25 144 -54 225 -131 l75 -73 -90 29
c-49 16 -130 44 -180 61 -117 43 -200 44 -334 5 -83 -24 -98 -26 -125 -14 -51
21 -142 13 -235 -21 -47 -17 -86 -29 -88 -27 -5 5 22 77 52 135 20 41 30 51
43 46 9 -3 48 -13 85 -21z m533 -135 c43 -11 60 -29 28 -29 -9 0 -57 -14 -108
-31 l-91 -31 -60 36 c-38 22 -54 37 -44 40 69 26 203 33 275 15z m-373 -41
c29 -13 74 -34 100 -49 l49 -26 -47 -27 c-38 -20 -61 -26 -111 -26 -44 0 -85
-8 -131 -25 -37 -14 -73 -23 -80 -21 -6 3 -22 24 -34 48 -12 24 -31 53 -42 65
-11 13 -17 26 -14 30 4 3 38 17 75 30 88 30 167 30 235 1z m-411 -52 l-4 -64
-40 -5 c-76 -10 -122 -61 -139 -152 -10 -54 -17 -67 -72 -125 -34 -36 -65 -66
-68 -68 -12 -6 -48 83 -54 133 l-5 50 62 30 c62 30 111 73 228 204 32 35 64
61 75 61 18 0 20 -6 17 -64z m1031 3 c78 -26 163 -76 250 -146 83 -67 140
-137 181 -223 27 -58 31 -75 30 -150 -2 -138 -57 -326 -160 -549 -117 -251
-316 -460 -437 -461 -99 0 -232 156 -297 350 -20 57 -22 78 -16 175 3 61 19
187 36 280 59 332 58 354 -22 513 -34 69 -39 85 -27 93 37 25 181 90 239 108
116 36 143 37 223 10z m-933 -69 c0 -4 -11 -5 -25 -2 -19 3 -25 11 -25 30 l0
25 25 -23 c14 -13 25 -27 25 -30z m35 -80 c26 -9 37 -27 82 -129 29 -66 55
-131 58 -144 l7 -25 -84 34 c-104 42 -183 47 -215 12 -26 -29 -43 -62 -58
-112 l-12 -39 -16 64 c-38 152 -34 293 10 337 24 24 29 25 111 19 48 -3 101
-11 117 -17z m348 0 c13 -11 44 -59 68 -107 43 -85 44 -91 44 -183 0 -57 -10
-144 -24 -216 l-23 -122 -37 5 c-22 3 -65 -3 -108 -16 -38 -12 -80 -21 -92
-21 l-21 0 19 38 c31 60 61 171 61 222 0 64 -24 134 -87 258 -29 57 -51 108
-48 112 6 9 85 36 125 43 61 10 98 6 123 -13z m-620 -410 c14 -36 28 -73 32
-83 6 -15 4 -17 -19 -11 -15 3 -32 1 -41 -6 -16 -13 -53 -163 -63 -260 l-7
-65 -28 59 c-40 84 -57 159 -57 251 0 124 28 208 92 281 l32 36 17 -68 c9 -38
28 -98 42 -134z m351 85 c66 -29 88 -43 92 -61 8 -31 -13 -145 -40 -219 -21
-59 -22 -60 -56 -57 -19 2 -82 27 -140 55 l-105 52 -3 40 c-5 53 15 150 40
199 l20 39 53 -6 c29 -3 91 -22 139 -42z m-144 -363 c90 -45 99 -47 175 -46
56 1 104 9 160 27 44 13 93 28 109 31 29 7 29 7 22 -31 -15 -84 -19 -252 -7
-298 7 -26 10 -49 8 -51 -2 -2 -39 12 -83 31 -94 41 -166 45 -341 19 -110 -17
-246 -15 -264 3 -5 5 -12 61 -15 124 -5 97 -3 128 16 207 l22 93 51 -31 c29
-17 95 -52 147 -78z m-420 -36 c10 -24 44 -84 74 -132 53 -83 66 -114 49 -114
-5 0 -34 14 -66 31 -59 31 -87 32 -87 4 0 -8 13 -57 30 -107 25 -79 26 -89 10
-68 -11 14 -32 50 -48 80 -22 46 -27 68 -27 130 1 65 29 220 41 220 3 0 13
-20 24 -44z m228 -351 c59 -15 73 -15 200 2 75 10 175 18 222 18 79 -1 91 -4
178 -45 90 -42 95 -46 122 -99 37 -73 112 -176 146 -198 l27 -17 -29 -8 c-27
-8 -80 -20 -283 -63 -94 -20 -238 -20 -316 0 -100 26 -195 78 -263 145 -49 49
-73 86 -126 192 -36 72 -66 137 -66 144 0 9 21 2 63 -21 34 -19 91 -41 125
-50z m6910 -99 c111 -42 160 -67 236 -119 107 -72 132 -101 155 -176 26 -85
26 -93 0 -61 -88 107 -247 223 -278 203 -30 -19 -21 -33 68 -105 167 -137 215
-172 232 -171 38 3 75 -260 64 -447 -6 -112 -8 -117 -53 -203 -53 -101 -129
-190 -217 -254 l-60 -44 -3 43 c-6 74 18 286 43 383 13 51 44 139 69 196 51
121 53 111 -41 214 -120 131 -231 318 -312 523 -25 64 -24 64 97 18z m-5582
-133 c-3 -27 -17 -174 -31 -328 -14 -154 -26 -289 -28 -300 -3 -29 -139 103
-206 199 -65 94 -151 243 -151 262 0 16 1 17 105 18 77 1 82 3 140 43 33 22
85 66 115 97 30 31 56 56 58 56 3 0 2 -21 -2 -47z m-443 -230 l28 -48 -26 30
c-32 37 -48 65 -38 65 5 0 21 -21 36 -47z m-300 -51 c-139 -185 -206 -272
-208 -270 -3 4 14 174 23 228 l7 45 70 7 c39 4 84 12 100 17 17 5 32 10 33 10
2 1 -9 -16 -25 -37z m37 -433 c-147 -727 -147 -725 -205 -802 l-50 -65 -7 38
c-9 49 -14 377 -10 582 l4 157 50 88 c74 130 301 470 305 457 2 -6 -37 -210
-87 -455z m177 419 c-3 -7 -5 -2 -5 12 0 14 2 19 5 13 2 -7 2 -19 0 -25z m59
-279 c55 -248 107 -405 213 -651 85 -196 92 -227 75 -330 l-7 -38 -30 23 c-16
12 -66 40 -111 62 l-80 41 -23 124 c-46 262 -73 491 -83 707 -12 255 -12 278
-5 271 3 -3 26 -97 51 -209z m88 72 c74 -145 164 -463 181 -641 l6 -65 -40 88
c-69 149 -118 295 -165 488 -24 101 -47 200 -51 219 -6 33 -5 34 9 16 9 -11
36 -58 60 -105z m232 -141 l82 -85 -5 -214 -6 -214 -33 146 c-29 131 -102 362
-148 472 l-17 40 23 -30 c12 -16 59 -68 104 -115z m-499 -77 c-3 -10 -5 -2 -5
17 0 19 2 27 5 18 2 -10 2 -26 0 -35z m-10 -256 c-2 -23 -3 -1 -3 48 0 50 1
68 3 42 2 -26 2 -67 0 -90z m138 -277 c14 -89 25 -166 25 -171 0 -11 -52 9
-62 24 -4 7 -7 118 -6 247 0 194 2 220 9 148 5 -48 20 -159 34 -248z m-554
145 c-6 -34 -11 -100 -11 -146 0 -108 -17 -300 -35 -409 -11 -63 -20 -90 -36
-102 -12 -10 -25 -18 -30 -18 -17 0 -31 78 -36 200 -8 195 17 313 108 505 38
79 43 86 47 61 2 -16 -1 -57 -7 -91z m684 -478 c66 -36 137 -74 157 -84 42
-20 47 -44 27 -115 -12 -47 -37 -50 -114 -12 -112 55 -199 162 -221 274 -6 33
-6 34 12 19 11 -9 73 -46 139 -82z m6502 16 c-3 -10 -5 -4 -5 12 0 17 2 24 5
18 2 -7 2 -21 0 -30z m54 -333 c22 -135 46 -267 54 -295 7 -27 21 -88 30 -135
9 -47 23 -118 32 -158 21 -104 9 -101 -16 5 -70 286 -139 666 -145 793 -2 58
-2 89 0 70 3 -19 23 -145 45 -280z m-7097 134 c-6 -25 -8 -26 -14 -9 -4 11 -3
26 3 33 14 18 19 9 11 -24z m885 -96 c21 -188 72 -531 100 -680 15 -82 24
-148 21 -148 -4 0 -40 23 -81 51 -154 107 -319 305 -403 483 -32 68 -93 252
-111 335 l-7 34 28 -28 c46 -44 141 -102 196 -121 68 -22 131 -15 168 21 28
27 60 100 60 137 0 10 4 18 9 18 5 0 14 -46 20 -102z m-990 -318 c-43 -157
-121 -417 -245 -812 -15 -49 -29 -86 -31 -84 -2 2 51 275 117 607 113 571 122
605 147 628 l26 23 18 -88 18 -89 -50 -185z m562 -20 c22 -47 58 -115 81 -153
25 -42 46 -93 55 -135 19 -90 53 -336 53 -383 0 -21 4 -40 9 -43 9 -6 17 23
42 154 6 36 14 67 16 69 2 3 27 -20 56 -50 28 -30 73 -73 99 -95 l47 -39 -65
-130 c-70 -141 -149 -370 -164 -474 -9 -61 -7 -74 31 -199 22 -74 39 -136 37
-138 -3 -2 -21 49 -40 114 -20 64 -59 194 -88 287 -156 511 -233 916 -245
1285 l-5 155 20 -70 c12 -38 39 -108 61 -155z m-406 -375 c-23 -575 -77 -1069
-155 -1406 -27 -119 -128 -500 -134 -506 -1 -1 -19 23 -39 55 -66 100 -147
274 -168 362 -42 166 -21 282 156 875 117 391 231 783 256 880 11 44 23 84 26
89 4 5 19 -37 35 -95 28 -100 29 -110 23 -254z m7182 -27 c-3 -8 -6 -5 -6 6
-1 11 2 17 5 13 3 -3 4 -12 1 -19z m200 -860 c-3 -8 -6 -5 -6 6 -1 11 2 17 5
13 3 -3 4 -12 1 -19z m10 -50 c-3 -8 -6 -5 -6 6 -1 11 2 17 5 13 3 -3 4 -12 1
-19z m-6663 -388 c4 -24 3 -29 -3 -15 -4 11 -11 36 -15 55 -4 24 -3 29 3 15 4
-11 11 -36 15 -55z m13 -62 c-3 -8 -6 -5 -6 6 -1 11 2 17 5 13 3 -3 4 -12 1
-19z m-130 -10 c-3 -8 -6 -5 -6 6 -1 11 2 17 5 13 3 -3 4 -12 1 -19z m151 -78
c0 -22 -1 -22 -8 5 -4 17 -8 39 -8 50 0 16 2 15 8 -5 4 -14 8 -36 8 -50z
m-130 -10 c0 -22 -1 -22 -8 5 -4 17 -8 39 -8 50 0 16 2 15 8 -5 4 -14 8 -36 8
-50z m139 -72 c-2 -13 -4 -5 -4 17 -1 22 1 32 4 23 2 -10 2 -28 0 -40z m-108
-150 c5 -62 12 -192 15 -288 l5 -175 -9 140 c-12 177 -29 416 -35 475 l-4 45
9 -42 c5 -23 13 -93 19 -155z m-1133 -130 c25 -39 70 -97 100 -128 48 -51 53
-60 45 -82 -5 -14 -28 -110 -51 -214 -23 -104 -43 -190 -45 -192 -8 -8 -92
301 -125 463 -27 127 -50 287 -50 344 l0 45 40 -83 c22 -45 61 -114 86 -153z
m1253 -60 c-4 -70 -6 -50 -6 82 0 119 2 149 6 93 3 -45 3 -124 0 -175z m-12
-265 c-2 -21 -4 -4 -4 37 0 41 2 58 4 38 2 -21 2 -55 0 -75z m-70 -120 c24
-18 51 1 56 40 l4 32 1 -32 c3 -61 -66 -77 -87 -20 -4 12 -5 30 -2 42 5 15 7
11 9 -15 2 -19 10 -40 19 -47z"/>
<path d="M8053 4388 c-61 -97 -164 -301 -159 -314 12 -31 38 -10 98 79 61 90
124 237 114 264 -9 23 -25 14 -53 -29z"/>
<path d="M6026 6922 c-3 -5 24 -49 60 -97 209 -284 320 -493 420 -793 42 -126
107 -362 102 -367 -6 -6 -140 23 -147 31 -5 5 -29 86 -54 179 -66 243 -107
369 -117 359 -5 -5 3 -51 17 -103 38 -142 102 -425 98 -429 -2 -3 -33 -1 -69
3 l-66 7 -10 41 c-52 208 -144 464 -248 692 -56 124 -68 145 -83 145 -17 0 -9
-23 60 -184 82 -193 130 -329 170 -491 46 -183 47 -195 24 -195 -11 0 -23 -3
-26 -7 -10 -10 13 -33 34 -33 24 0 29 -18 59 -226 31 -211 42 -455 30 -662
-13 -223 -16 -241 -45 -252 -13 -5 -38 -24 -57 -43 -30 -29 -43 -35 -99 -41
-35 -3 -82 -9 -104 -12 -39 -5 -42 -4 -73 40 -48 66 -65 61 -74 -24 l-3 -25
-142 -3 -141 -3 -30 93 c-86 263 -136 456 -207 799 -24 116 -46 213 -49 217
-24 23 -20 -38 14 -247 57 -340 91 -494 170 -766 11 -38 20 -73 20 -77 0 -11
-66 -20 -98 -13 -28 6 -34 16 -92 168 -172 451 -241 706 -300 1112 -21 141
-70 554 -70 587 0 10 -7 18 -15 18 -18 0 -18 -3 -5 -185 30 -413 74 -750 120
-930 37 -143 123 -399 203 -602 l64 -161 -30 -6 c-61 -12 -77 -7 -98 29 -23
39 -37 44 -45 18 -19 -60 -20 -59 -83 100 -149 382 -244 729 -290 1073 -32
237 -41 395 -41 758 0 335 -5 385 -31 359 -18 -18 -25 -846 -10 -1136 29 -543
51 -775 110 -1137 l27 -170 -28 0 c-18 0 -42 13 -68 36 -44 40 -70 40 -70 -1
0 -31 -11 -31 -63 -1 -38 23 -68 30 -222 53 l-50 8 -22 110 c-31 156 -70 394
-83 505 -14 130 -31 523 -22 532 10 9 188 70 302 103 103 30 120 39 103 56 -8
8 -61 -1 -195 -34 -100 -25 -191 -49 -200 -52 -16 -7 -18 2 -18 99 0 88 -3
106 -15 106 -12 0 -15 -15 -16 -72 0 -40 -3 -91 -7 -112 l-7 -40 -105 -37
c-58 -20 -143 -53 -190 -73 -46 -20 -86 -36 -89 -36 -8 0 9 298 25 420 8 69
26 184 40 257 28 154 29 173 10 173 -19 0 -18 1 -65 -235 -47 -235 -68 -386
-77 -547 l-6 -118 -126 -100 c-70 -55 -144 -114 -165 -131 l-38 -32 5 34 c3
19 17 111 31 204 27 179 91 508 124 636 23 88 99 284 171 435 48 103 53 124
27 124 -26 0 -200 -366 -256 -537 -44 -136 -115 -462 -162 -748 l-42 -250
-138 -142 c-77 -78 -139 -149 -139 -157 0 -34 25 -24 96 41 41 37 96 87 122
110 l48 42 -13 -112 c-71 -631 -17 -2381 103 -3342 46 -369 181 -1236 230
-1472 l6 -33 230 0 c214 0 232 1 271 21 77 39 181 111 250 171 l67 60 0 -59
c0 -32 -9 -88 -19 -126 -19 -64 -19 -67 -2 -67 23 0 61 122 61 195 0 28 9 144
20 260 l20 210 32 27 c34 29 62 35 73 18 4 -6 2 -16 -3 -23 -6 -7 -22 -62 -37
-122 -56 -240 -97 -423 -109 -493 l-13 -73 36 5 c61 9 238 11 401 4 l155 -7
-90 19 c-69 15 -132 19 -272 20 -107 0 -183 4 -183 9 0 18 89 24 268 18 160
-4 187 -8 285 -36 91 -26 124 -31 217 -31 61 0 110 4 110 9 0 5 -15 22 -34 39
-24 21 -49 32 -86 37 -29 4 -68 18 -88 31 -26 18 -48 24 -89 24 -38 0 -63 6
-82 19 -39 28 -73 34 -116 22 -32 -9 -42 -7 -63 9 -13 11 -31 20 -38 20 -29 0
-12 17 29 29 23 7 77 29 119 48 l77 35 99 -91 c55 -50 107 -91 116 -91 9 0 50
23 91 50 41 28 80 50 87 50 8 0 49 -15 93 -34 60 -26 96 -50 143 -95 93 -90
132 -117 142 -102 4 7 11 54 15 105 5 75 12 100 36 143 l30 52 36 -17 35 -17
37 43 37 43 68 -21 c37 -12 74 -19 82 -16 7 3 36 -13 64 -35 43 -34 49 -43 39
-56 -10 -11 -24 -13 -57 -8 -49 7 -86 -10 -97 -45 -5 -16 -15 -20 -50 -20 -35
0 -48 -5 -64 -26 -12 -15 -21 -32 -21 -39 0 -7 -19 -16 -45 -19 -41 -7 -85
-41 -85 -67 0 -5 38 -9 85 -9 82 0 89 2 158 41 78 44 151 76 236 104 46 15 55
15 67 3 12 -12 4 -17 -58 -37 -98 -31 -241 -105 -211 -109 12 -2 48 10 81 27
32 16 96 42 141 56 93 30 96 30 138 -42 16 -28 32 -43 45 -43 18 0 17 4 -11
56 -27 51 -28 54 -8 41 115 -73 167 -98 202 -95 l37 3 -61 35 c-33 19 -61 39
-61 43 0 20 -124 276 -162 336 l-42 66 -9 206 c-6 122 -6 230 -1 264 8 52 12
59 36 66 26 7 27 6 38 -65 35 -209 126 -509 226 -747 31 -74 63 -151 72 -171
l15 -38 149 0 c81 0 148 4 148 8 0 5 -8 33 -19 63 -27 79 -87 333 -115 489
-27 149 -51 348 -61 510 l-7 105 99 44 c54 24 131 61 171 83 41 22 75 38 77
36 1 -2 8 -64 14 -138 24 -299 35 -561 35 -872 l1 -328 177 0 c176 0 178 0
183 22 62 281 109 540 154 843 31 207 85 715 97 913 l7 113 62 92 c121 181
169 342 169 567 1 161 -11 247 -56 395 -64 216 -123 332 -260 511 -40 53 -78
105 -85 117 -6 12 -28 114 -49 227 -29 167 -73 344 -128 525 -8 24 18 -32 87
-189 29 -65 58 -121 65 -124 33 -12 32 18 -6 114 -21 55 -42 124 -46 154 -15
120 -119 614 -176 838 -67 261 -148 517 -204 638 -93 200 -354 536 -670 862
-108 111 -146 140 -146 112 0 -6 55 -72 121 -148 152 -171 286 -338 394 -489
74 -104 89 -132 129 -248 42 -122 82 -255 106 -352 9 -36 16 -43 55 -60 34
-14 47 -25 54 -48 5 -16 25 -82 45 -145 19 -63 60 -221 91 -350 69 -291 69
-295 48 -250 -189 398 -234 470 -448 726 -49 59 -94 113 -98 121 -10 17 29 -1
196 -90 124 -66 157 -75 157 -43 0 26 -204 151 -391 240 -65 31 -116 63 -131
81 -15 19 -37 76 -58 150 -59 211 -151 445 -234 595 -66 120 -187 297 -303
443 -52 65 -66 76 -77 59z m380 -1279 c27 -10 53 -197 61 -435 6 -188 -11
-548 -27 -579 -8 -14 -88 -46 -94 -37 -2 2 1 37 5 78 12 113 10 479 -2 609 -6
64 -24 176 -38 249 l-27 134 55 -7 c30 -4 60 -9 67 -12z m151 -33 c29 -6 56
-17 61 -23 32 -39 50 -366 33 -582 -14 -168 -35 -342 -43 -350 -6 -6 -102 -24
-106 -20 -2 2 2 52 8 112 6 59 14 209 17 333 4 209 3 236 -20 370 -14 80 -29
153 -33 164 -6 15 -3 17 12 13 10 -3 42 -11 71 -17z m280 -198 c130 -173 226
-315 315 -467 129 -218 144 -254 193 -465 26 -107 49 -204 51 -215 3 -11 -6
-2 -21 20 -42 62 -144 162 -209 207 -115 79 -234 123 -410 150 l-78 12 7 55
c51 417 55 608 19 824 -11 61 13 40 133 -121z m-2734 -159 c5 -304 14 -392 67
-702 11 -68 19 -125 17 -127 -2 -2 -41 -9 -85 -14 -45 -6 -121 -22 -169 -36
-49 -15 -95 -27 -103 -28 -11 -1 -21 33 -41 139 -46 239 -78 562 -79 792 l0
92 83 46 c84 48 273 134 293 135 8 0 13 -85 17 -297z m-478 40 c-3 -10 -22
-76 -41 -148 -86 -318 -233 -754 -309 -916 l-26 -54 5 225 c5 208 30 594 42
631 6 20 116 119 233 211 90 70 108 79 96 51z m1112 -105 c-3 -8 -6 -5 -6 6
-1 11 2 17 5 13 3 -3 4 -12 1 -19z m74 -239 c40 -125 154 -418 200 -514 19
-40 29 -51 52 -53 16 -2 35 2 43 9 10 8 18 8 27 1 21 -17 236 -18 298 -2 35
10 43 8 66 -10 24 -18 40 -20 198 -20 142 0 175 3 185 15 10 12 16 13 26 4 14
-11 37 -10 192 7 l54 7 -4 -48 c-5 -70 16 -79 74 -32 48 39 152 91 258 128 90
31 277 38 387 14 334 -73 529 -328 643 -840 23 -102 40 -135 70 -135 20 0 139
-156 202 -263 97 -167 157 -386 165 -612 6 -170 -7 -265 -57 -392 -72 -186
-280 -446 -478 -597 -117 -89 -296 -198 -447 -271 -385 -187 -793 -306 -1334
-389 -91 -14 -169 -30 -174 -35 -16 -16 1 -41 26 -41 24 0 24 -1 32 -139 4
-77 4 -149 0 -161 -6 -20 -9 -18 -32 21 -58 102 -97 122 -232 118 -91 -3 -99
-2 -148 27 -42 24 -90 38 -228 64 l-175 34 0 48 c0 44 2 48 24 48 26 0 39 19
26 39 -4 7 -98 37 -209 67 -271 73 -474 137 -606 190 -79 33 -486 224 -553
260 -1 1 -9 57 -17 125 -38 323 -66 705 -90 1208 -15 311 -15 315 5 336 15 16
20 35 20 81 0 89 38 330 64 404 66 190 230 372 423 469 200 100 491 127 723
68 111 -29 125 -25 116 35 -6 34 -3 40 16 47 13 5 33 5 46 0 36 -14 126 -11
147 5 18 13 17 21 -18 262 -44 293 -77 565 -76 608 1 27 3 24 15 -19 8 -27 33
-107 55 -176z m-1132 -304 c12 -66 33 -169 47 -229 13 -60 23 -110 21 -112 -1
-1 -36 -25 -78 -52 -92 -60 -203 -163 -265 -246 -48 -63 -111 -180 -135 -251
l-14 -40 -6 65 c-18 184 -18 187 81 409 151 338 199 469 254 692 l51 207 11
-162 c7 -88 21 -215 33 -281z m4037 -2992 c-23 -388 -90 -970 -115 -996 -4 -4
-11 70 -15 165 -3 95 -11 207 -16 248 -5 41 -14 149 -20 240 -6 91 -14 190
-19 220 l-9 54 97 93 c53 50 98 92 100 93 2 0 0 -53 -3 -117z m-299 -165 c-3
-8 -6 -5 -6 6 -1 11 2 17 5 13 3 -3 4 -12 1 -19z m-3670 -319 c25 -142 93
-592 89 -596 -6 -7 -82 191 -109 288 -22 72 -51 228 -70 371 l-6 37 42 -18
c41 -17 42 -20 54 -82z m504 -165 c-1 -27 -6 -101 -11 -164 -6 -63 -10 -143
-10 -176 0 -55 -2 -62 -22 -68 -65 -17 -63 -21 -81 157 -10 89 -20 203 -23
253 l-7 92 79 -23 78 -23 -3 -48z m389 -100 l0 -46 -47 6 c-27 4 -61 16 -76
27 -37 27 -48 15 -16 -15 30 -30 155 -66 381 -110 132 -27 178 -40 211 -62 40
-26 48 -28 159 -28 l117 -1 35 -34 c30 -29 96 -136 96 -156 0 -15 -30 18 -54
59 -14 24 -42 58 -62 75 l-36 33 -107 -3 c-96 -2 -110 0 -156 23 -55 28 -170
58 -314 83 -170 29 -311 95 -311 146 0 13 17 20 78 32 42 8 83 15 90 16 8 1
12 -14 12 -45z m1085 -37 l70 -24 -31 -30 c-17 -17 -50 -36 -75 -43 -24 -6
-61 -20 -81 -30 l-38 -18 0 84 0 84 43 0 c24 0 74 -11 112 -23z m95 -41 c0 -8
-21 -37 -48 -64 -35 -35 -60 -52 -94 -60 -58 -15 -81 -43 -103 -129 -34 -127
-50 -112 -19 17 21 89 51 126 109 135 49 7 118 58 130 96 7 22 25 26 25 5z
m-1196 -56 c34 -11 93 -24 131 -30 134 -23 275 -60 327 -86 48 -25 62 -27 154
-25 96 2 102 1 133 -25 31 -25 91 -105 91 -120 0 -12 -174 5 -272 26 -87 19
-119 19 -89 0 18 -11 200 -48 271 -55 30 -3 70 -8 88 -11 l33 -5 -93 -72 c-52
-40 -131 -96 -176 -126 l-82 -53 -77 71 c-43 39 -122 110 -176 157 l-97 86
-93 -15 c-52 -9 -115 -25 -142 -37 -26 -11 -49 -19 -52 -17 -2 2 3 22 11 44 8
22 17 67 21 99 3 33 11 71 17 86 10 26 10 26 45 12 57 -24 60 -10 5 25 -51 32
-112 93 -112 111 0 5 17 2 37 -6 20 -9 64 -24 97 -34z m1151 -87 c-13 -37 -22
-69 -20 -72 3 -2 13 4 24 13 26 24 45 10 101 -73 l46 -66 -18 -55 c-10 -31
-30 -71 -46 -89 l-27 -33 -68 40 c-37 22 -101 54 -143 72 l-75 33 40 26 c39
25 51 41 32 41 -6 0 -13 -4 -16 -10 -9 -15 -25 -12 -25 5 0 26 39 127 55 145
9 10 31 21 49 24 19 4 51 20 72 36 22 16 40 29 41 29 2 1 -8 -29 -22 -66z m85
-18 c16 -8 57 -52 91 -98 35 -45 90 -116 123 -157 57 -71 59 -73 21 -44 -57
45 -145 140 -184 199 -19 28 -48 65 -64 83 -34 35 -31 40 13 17z m-1495 -154
l-8 -66 -23 60 c-30 77 -29 82 4 99 25 13 27 13 30 -7 2 -11 1 -50 -3 -86z
m1669 32 c39 -53 80 -123 73 -123 -5 0 -106 132 -121 158 -4 6 -2 12 3 12 6 0
26 -21 45 -47z m-1764 -4 c0 -5 18 -58 41 -117 l40 -107 -53 -49 c-85 -77
-145 -124 -212 -161 l-62 -34 -91 18 c-117 24 -137 35 -130 69 12 59 71 206
101 250 40 59 91 85 231 116 130 29 135 29 135 15z m1936 -40 c45 -21 74 -43
94 -70 45 -62 133 -240 123 -249 -27 -27 -73 -10 -140 51 -24 22 -46 39 -50
39 -16 0 -98 115 -95 133 2 9 -10 45 -27 78 l-31 61 31 -6 c17 -3 60 -20 95
-37z m-1668 -209 c37 -69 47 -80 70 -80 26 -1 25 -2 -12 -21 -36 -19 -44 -20
-98 -9 -62 13 -63 16 -49 70 6 19 15 54 21 78 6 23 14 42 18 42 4 0 26 -36 50
-80z m1121 -82 c-5 -10 -14 -18 -19 -18 -9 0 -70 111 -70 127 0 4 22 -15 49
-41 41 -41 48 -53 40 -68z"/>
<path d="M6594 4359 c-80 -13 -104 -25 -104 -51 0 -16 15 -32 49 -55 57 -37
68 -68 51 -133 -14 -52 -59 -75 -127 -65 -39 6 -46 11 -76 63 -45 77 -63 76
-103 -6 -76 -155 -78 -419 -4 -614 42 -113 144 -242 242 -307 90 -61 179 -85
290 -79 77 5 100 11 163 42 86 43 135 93 176 184 49 106 62 179 56 332 -6 162
-26 239 -99 390 -80 166 -182 254 -343 295 -65 16 -93 17 -171 4z m416 -636
c42 -52 70 -145 58 -192 -30 -110 -92 -191 -177 -233 -65 -32 -185 -32 -255 0
-142 65 -213 191 -192 336 8 53 19 58 36 16 44 -106 209 -153 328 -94 61 30
102 76 134 151 13 29 26 53 30 53 3 0 21 -17 38 -37z"/>
<path d="M4109 4046 c-105 -37 -179 -83 -179 -111 0 -25 7 -29 73 -40 52 -8
71 -40 65 -107 -4 -42 -11 -57 -36 -79 -17 -16 -47 -31 -67 -35 -31 -6 -44 -1
-92 32 -81 55 -93 41 -133 -157 -25 -123 -25 -205 0 -305 30 -119 74 -199 149
-275 110 -110 212 -149 391 -149 63 0 130 6 165 15 178 47 292 169 347 374 30
109 30 293 -1 416 -27 113 -97 258 -150 313 -113 117 -364 168 -532 108z m566
-555 l70 -17 -2 -88 c-5 -195 -82 -364 -198 -432 -56 -32 -195 -49 -285 -35
-127 21 -247 98 -292 189 -18 38 -23 63 -22 127 0 81 29 195 44 178 4 -4 15
-31 24 -60 34 -105 95 -146 216 -147 92 -1 156 17 204 56 51 42 66 77 73 172
l6 83 46 -5 c25 -3 78 -12 116 -21z"/>
<path d="M6000 3141 c0 -18 31 -81 39 -81 23 0 27 53 5 74 -17 17 -44 22 -44
7z"/>
<path d="M7447 3068 c-77 -133 -261 -533 -252 -548 4 -6 10 -10 16 -10 19 0
279 545 279 586 0 26 -18 14 -43 -28z"/>
<path d="M7193 2967 c-96 -162 -245 -452 -236 -460 3 -4 10 -7 14 -7 19 0 319
539 319 573 0 41 -30 8 -97 -106z"/>
<path d="M6983 2928 c-57 -96 -93 -168 -93 -189 0 -5 6 -9 14 -9 17 0 76 94
129 204 41 86 43 96 24 96 -7 0 -40 -46 -74 -102z"/>
<path d="M7623 2993 c-46 -65 -213 -414 -213 -445 0 -39 26 -10 79 88 89 165
176 363 164 375 -7 7 -17 2 -30 -18z"/>
<path d="M7764 2952 c-28 -19 -154 -295 -141 -308 11 -11 26 7 67 80 78 142
115 256 74 228z"/>
<path d="M3998 2703 c-46 -54 -344 -525 -351 -555 -1 -6 3 -12 9 -15 22 -8
374 532 374 573 0 19 -14 18 -32 -3z"/>
<path d="M4136 2597 c-81 -124 -256 -436 -256 -455 0 -7 6 -12 13 -12 23 0
337 532 337 570 0 29 -28 -1 -94 -103z"/>
<path d="M4368 2662 c-24 -27 -129 -197 -192 -310 -52 -94 -61 -122 -35 -122
17 0 259 399 259 428 0 20 -17 22 -32 4z"/>
<path d="M3718 2568 c-117 -169 -168 -268 -138 -268 20 0 220 305 220 337 0
35 -25 14 -82 -69z"/>
<path d="M4494 2589 c-47 -74 -94 -171 -94 -196 0 -8 7 -13 18 -11 16 3 120
197 137 256 13 44 -16 21 -61 -49z"/>
<path d="M5760 2484 c-105 -13 -230 -38 -303 -60 -79 -25 -267 -111 -336 -154
-33 -21 -33 -21 -26 -78 26 -220 141 -409 280 -461 73 -27 245 -55 259 -41 14
14 8 17 -91 39 -126 27 -184 55 -237 111 -76 81 -145 246 -146 347 0 31 4 35
98 82 240 121 370 143 569 98 172 -39 345 -129 441 -229 l33 -35 -21 -53 c-29
-73 -101 -182 -142 -213 -18 -14 -68 -42 -111 -62 -73 -35 -95 -55 -62 -55 9
0 53 14 98 32 106 41 175 107 235 229 57 116 73 186 70 305 l-3 98 -40 23
c-74 41 -245 75 -395 78 -74 2 -151 1 -170 -1z"/>
<path d="M5564 38 c3 -13 6 -26 6 -30 0 -5 14 -8 31 -8 l31 0 -24 29 c-28 36
-53 41 -44 9z"/>
</g>
</svg>
